<svg xmlns="http://www.w3.org/2000/svg" width="100" height="100" viewBox="0 0 100 100">
    <path fill="#E91B34" fill-rule="nonzero" d="M99.118 36.234c0-12.712-10.338-23.054-23.046-23.054-.552 0-1.11.021-1.67.063C68.935 5.02 59.67 0 49.722 0 39.772 0 30.508 5.022 25.04 13.243a22.421 22.421 0 0 0-1.67-.063C10.662 13.18.324 23.522.324 36.234c0 11.598 8.606 21.217 19.765 22.816v31.86c0 4.705 3.827 8.532 8.53 8.532h42.203c4.705 0 8.531-3.827 8.531-8.532V59.05c11.16-1.599 19.765-11.219 19.765-22.816zM70.822 92.88H28.62c-1.067 0-1.969-.902-1.969-1.969V59.053a22.676 22.676 0 0 0 9.02-3.332 29.498 29.498 0 0 0 14.05 3.567c5.023 0 9.826-1.283 14.049-3.567a22.685 22.685 0 0 0 9.02 3.332V90.91c0 1.067-.9 1.97-1.968 1.97zm5.25-40.154a16.35 16.35 0 0 1-6.328-1.261 29.528 29.528 0 0 0 8.528-13.888 3.282 3.282 0 0 0-6.325-1.753C69.19 45.774 60.05 52.725 49.721 52.725c-10.329 0-19.469-6.95-22.226-16.902a3.281 3.281 0 1 0-6.325 1.753 29.524 29.524 0 0 0 8.528 13.888c-1.984.83-4.12 1.26-6.328 1.26-9.09 0-16.483-7.397-16.483-16.49 0-9.093 7.394-16.49 16.483-16.49.919 0 1.864.081 2.811.244a3.285 3.285 0 0 0 3.416-1.628C33.683 11.083 41.394 6.563 49.72 6.563c8.326 0 16.037 4.52 20.124 11.797a3.283 3.283 0 0 0 3.416 1.628 16.722 16.722 0 0 1 2.81-.245c9.09 0 16.484 7.398 16.484 16.491s-7.394 16.49-16.483 16.49z"/>
</svg>
