<svg xmlns="http://www.w3.org/2000/svg" width="120" height="93" viewBox="0 0 120 93">
    <g fill="#E91B34" fill-rule="nonzero">
        <path d="M6.49 28.828h13.781v7.031H6.49zM6.49 56.953h13.781v7.031H6.49zM0 42.891h20.271v7.031H0zM73.65.057c-25.556 0-46.348 20.793-46.348 46.35 0 25.556 20.792 46.348 46.349 46.348C99.208 92.755 120 71.963 120 46.406 120 20.85 99.208.057 73.65.057zm0 85.667c-21.679 0-39.317-17.638-39.317-39.318 0-21.68 17.638-39.317 39.318-39.317 21.68 0 39.318 17.638 39.318 39.317 0 21.68-17.638 39.318-39.318 39.318z"/>
        <path d="M75.921 48.153v-22.71H68.89V51.87l18.119 12.348 3.96-5.81z"/>
    </g>
</svg>
