<svg xmlns="http://www.w3.org/2000/svg" width="175" height="50" viewBox="0 0 175 50">
    <g fill="#000" fill-rule="evenodd">
        <path d="M7.063 42.248h3.047c1.43 0 2.55-.21 3.358-.624.808-.416 1.419-.993 1.836-1.73.415-.738.666-1.616.762-2.632.09-1.016.138-2.124.138-3.325 0-1.247-.07-2.332-.209-3.254-.139-.923-.428-1.697-.865-2.32-.44-.623-1.05-1.096-1.836-1.421-.784-.321-1.824-.483-3.115-.483H7.063v15.789zm0-22.022h3.185c2.354 0 3.935-.588 4.744-1.766.807-1.177 1.212-2.895 1.212-5.16 0-2.214-.452-3.877-1.35-4.986-.901-1.108-2.53-1.66-4.884-1.66H7.063v13.572zM0 .006h10.317c2.261 0 4.19.346 5.783 1.037 1.592.693 2.896 1.618 3.911 2.771a10.352 10.352 0 0 1 2.182 3.982c.437 1.5.66 3.06.66 4.673v1.802c0 1.339-.106 2.47-.314 3.392-.208.925-.52 1.731-.935 2.426a7.784 7.784 0 0 1-1.524 1.835 13.227 13.227 0 0 1-2.077 1.488c1.663.785 2.885 1.95 3.671 3.497.784 1.546 1.178 3.613 1.178 6.198v2.768c0 4.341-1.052 7.664-3.152 9.974-2.102 2.307-5.46 3.461-10.076 3.461H0V.006zM36.008 15.452l7.063-7.456V49.31h-7.063zM43.07 3.323l-7.062 7.456V0h7.063zM111.382 15.452l7.063-7.456V49.31h-7.063zM118.445 3.323l-7.063 7.456V0h7.063zM167.58 15.452l7.063-7.456V49.31h-7.063zM174.643 3.323l-7.063 7.456V0h7.063zM63.291 22.027h4.016c1.247 0 2.24-.174 2.977-.52.739-.346 1.305-.84 1.698-1.49.391-.645.658-1.442.796-2.389.138-.944.207-2.042.207-3.288s-.069-2.342-.207-3.289c-.138-.946-.427-1.754-.866-2.424-.44-.668-1.05-1.165-1.835-1.49-.785-.321-1.824-.483-3.116-.483h-3.67v15.373zM56.228.006h11.356c8.31 0 12.465 4.824 12.465 14.472 0 2.863-.45 5.322-1.35 7.375-.901 2.055-2.482 3.704-4.744 4.95l7.619 22.507h-7.48l-6.58-21.05h-4.223v21.05h-7.063V.006zM131.637.006h7.064v22.505h.138L149.158.006h7.064l-9.627 19.735 11.427 29.569h-7.48l-8.032-21.88-3.81 7.13v14.75h-7.063zM84.162 22.26c1.522 0 1.862-.734 2.165-1.576h1.327v12.533h-1.97v-9.56h-1.522v-1.396zM101.17 22.331c-.626 0-1.021.341-1.021 1.236v1.343h-1.863v-1.218c0-2.005 1.003-3.15 2.937-3.15 1.935 0 2.938 1.145 2.938 3.15 0 3.94-3.922 5.408-3.922 7.468 0 .088 0 .177.017.267h3.726v1.79h-5.696v-1.54c0-3.687 3.905-4.298 3.905-7.914 0-1.127-.394-1.432-1.021-1.432M96.458 25.676l-5.245 5.245-.806-.808 5.245-5.244z"/>
    </g>
</svg>
