<svg xmlns="http://www.w3.org/2000/svg" width="100" height="101" viewBox="0 0 100 101">
    <path fill="#E91B34" fill-rule="nonzero" d="M5.798 51.77c-1.316 3.02-1.6 6.226-.787 9.262 1.244 4.647 4.718 8.347 9.238 9.954 1.828 4.163 5.733 10.842 10.862 17.251 10.343 12.921 24.923 11.906 25.142 11.956 4.751 0 9.322-2.245 12.228-6.005 2.908-3.764 3.953-9.029 2.726-13.74-.406-1.56-.565-2.731-.565-4.173 0-8.655 8.11-15.256 16.707-13.536l9.278 1.855a2.929 2.929 0 0 0 3.431-2.225c.645-2.851 1.02-6.623-1.834-10.52-.336-.459-.702-.89-1.095-1.293 5.307-3.034 8.86-8.737 8.86-15.198a17.52 17.52 0 0 0-11.75-16.553c.022-.343.033-.683.033-1.022 0-9.691-7.885-17.576-17.576-17.576-5.757 0-11.118 2.79-14.406 7.313l-.11-.052A17.522 17.522 0 0 0 37.394.8c-5.465 1.465-9.853 5.528-11.84 10.743a14.273 14.273 0 0 0-6.45.224 14.186 14.186 0 0 0-8.805 6.866 14.695 14.695 0 0 0-1.795 8.415C2.302 29.98-1.388 37.043.491 44.055c.814 3.04 2.694 5.741 5.307 7.714zm52.137-37.325a2.93 2.93 0 0 0 1.988-1.609c1.929-4.113 6.157-6.77 10.773-6.77 6.46 0 11.717 5.255 11.717 11.717 0 .806-.098 1.64-.3 2.55a2.93 2.93 0 0 0 2.349 3.521 11.677 11.677 0 0 1 9.669 11.504c0 6.134-4.826 11.243-10.987 11.63a2.929 2.929 0 0 0-.062 5.843 6.107 6.107 0 0 1 4.415 2.48c.68.927 1.047 1.832 1.133 2.909l-6.132-1.226c-12.226-2.445-23.714 6.932-23.714 19.28 0 1.957.218 3.594.754 5.65.767 2.95.103 6.357-1.693 8.681a9.49 9.49 0 0 1-1.671 1.676s-7.208-29.229-7.297-29.654l8.287-4.144a2.929 2.929 0 1 0-2.62-5.24l-6.356 3.178c-.048-2.89.275-5.785.977-8.595a22.263 22.263 0 0 1 12.17-14.785l10.577 7.623a2.929 2.929 0 1 0 3.425-4.753l-6.987-5.036 5.971-1.46a2.93 2.93 0 0 0-1.392-5.69l-8.957 2.19a28.112 28.112 0 0 0-15.886 10.67l-1.093-4.806a2.93 2.93 0 1 0-5.713 1.3l2.662 11.705a27.98 27.98 0 0 0-.46 1.621 39.217 39.217 0 0 0-.002 18.908l6.958 28.178c-8.351-9.096-13.589-20.908-14.816-33.522a2.93 2.93 0 0 0-1.513-2.288c-2.85-1.554-4.62-4.495-4.62-7.676 0-2.532 1.08-4.87 3.041-6.583a2.93 2.93 0 0 0 0-4.41c-1.96-1.714-3.04-4.052-3.04-6.583 0-4.846 3.943-8.788 8.788-8.788a2.93 2.93 0 0 0 2.93-2.93c0-4.845 3.942-8.787 8.787-8.787 1.96 0 3.844.677 5.446 1.957.702.56 1.62.768 2.494.564zM12.56 31.776a2.93 2.93 0 0 0 2.07-3.588c-.616-2.3-.336-4.684.79-6.71a8.38 8.38 0 0 1 5.2-4.052c1.894-.508 3.887-.341 5.767.481a2.927 2.927 0 0 0 4.057-2.17c.8-4.471 4.122-8.114 8.466-9.277a11.71 11.71 0 0 1 6.855.232c-5.184 1.567-9.165 5.935-10.17 11.337-6.799 1.263-11.963 7.24-11.963 14.4a14.53 14.53 0 0 0 2.982 8.788 14.526 14.526 0 0 0-2.982 8.788c0 4.798 2.385 9.26 6.318 11.984 1.424 11.854 6.099 22.699 12.67 31.288a25.897 25.897 0 0 1-12.935-8.701c-5.102-6.374-9.15-13.388-10.513-17.022a2.931 2.931 0 0 0-2.055-1.82c-3.154-.762-5.624-3.145-6.448-6.218-.828-3.09.558-5.803 1.458-7.145a2.929 2.929 0 0 0-1.142-4.26c-2.446-1.202-4.209-3.233-4.835-5.572-1.25-4.664 1.69-9.498 6.41-10.763z"/>
</svg>
